{
  "accessors": [
    {
      "bufferView": 2,
      "componentType": 5126,
      "count": 43979,
      "max": [
        76.8193588256836,
        20.816749572753906,
        5.109317779541016
      ],
      "min": [
        -201.56661987304688,
        -41.17076110839844,
        -262.1046447753906
      ],
      "type": "VEC3"
    },
    {
      "bufferView": 2,
      "byteOffset": 527748,
      "componentType": 5126,
      "count": 43979,
      "max": [
        0.9999500513076782,
        0.9999673366546631,
        0.9999679923057556
      ],
      "min": [
        -0.9999718070030212,
        -0.9999995827674866,
        -0.9998993873596191
      ],
      "type": "VEC3"
    },
    {
      "bufferView": 1,
      "componentType": 5126,
      "count": 43979,
      "max": [
        0.9999970197677612,
        0.999908983707428
      ],
      "min": [
        1.9999999949504854e-06,
        3.5000000934815034e-05
      ],
      "type": "VEC2"
    },
    {
      "bufferView": 0,
      "componentType": 5125,
      "count": 159192,
      "type": "SCALAR"
    },
    {
      "bufferView": 2,
      "byteOffset": 1055496,
      "componentType": 5126,
      "count": 45915,
      "max": [
        85.60609436035156,
        20.99231719970703,
        25.633821487426758
      ],
      "min": [
        -203.14028930664063,
        -46.45652770996094,
        -262.6036376953125
      ],
      "type": "VEC3"
    },
    {
      "bufferView": 2,
      "byteOffset": 1606476,
      "componentType": 5126,
      "count": 45915,
      "max": [
        0.9998937249183655,
        0.9999738931655884,
        0.9999135136604309
      ],
      "min": [
        -0.9999844431877136,
        -1.0,
        -0.9999558329582214
      ],
      "type": "VEC3"
    },
    {
      "bufferView": 1,
      "byteOffset": 351832,
      "componentType": 5126,
      "count": 45915,
      "max": [
        1.9975329637527466,
        0.9999650120735168
      ],
      "min": [
        1.0000189542770386,
        9.999999974752427e-07
      ],
      "type": "VEC2"
    },
    {
      "bufferView": 0,
      "byteOffset": 636768,
      "componentType": 5125,
      "count": 162939,
      "type": "SCALAR"
    },
    {
      "bufferView": 2,
      "byteOffset": 2157456,
      "componentType": 5126,
      "count": 43632,
      "max": [
        80.72233581542969,
        20.847766876220703,
        17.036874771118164
      ],
      "min": [
        -201.94163513183594,
        -42.602867126464844,
        -257.1765441894531
      ],
      "type": "VEC3"
    },
    {
      "bufferView": 2,
      "byteOffset": 2681040,
      "componentType": 5126,
      "count": 43632,
      "max": [
        0.9999873638153076,
        0.9999763369560242,
        0.9997950196266174
      ],
      "min": [
        -0.9999960660934448,
        -0.9999994039535522,
        -0.9999776482582092
      ],
      "type": "VEC3"
    },
    {
      "bufferView": 1,
      "byteOffset": 719152,
      "componentType": 5126,
      "count": 43632,
      "max": [
        2.9999990463256836,
        0.9982330203056335
      ],
      "min": [
        2.0000081062316895,
        1.4000000192027073e-05
      ],
      "type": "VEC2"
    },
    {
      "bufferView": 0,
      "byteOffset": 1288524,
      "componentType": 5125,
      "count": 148500,
      "type": "SCALAR"
    },
    {
      "bufferView": 2,
      "byteOffset": 3204624,
      "componentType": 5126,
      "count": 43731,
      "max": [
        79.50139617919922,
        20.99231719970703,
        19.063560485839844
      ],
      "min": [
        -207.33740234375,
        -46.45652770996094,
        -266.4141845703125
      ],
      "type": "VEC3"
    },
    {
      "bufferView": 2,
      "byteOffset": 3729396,
      "componentType": 5126,
      "count": 43731,
      "max": [
        0.9999932646751404,
        0.9999806880950928,
        0.9999829530715942
      ],
      "min": [
        -0.9998990893363953,
        -0.9999999403953552,
        -0.9999865293502808
      ],
      "type": "VEC3"
    },
    {
      "bufferView": 1,
      "byteOffset": 1068208,
      "componentType": 5126,
      "count": 43731,
      "max": [
        3.999406099319458,
        0.9999909996986389
      ],
      "min": [
        3.0000619888305664,
        1.700000029813964e-05
      ],
      "type": "VEC2"
    },
    {
      "bufferView": 0,
      "byteOffset": 1882524,
      "componentType": 5125,
      "count": 153540,
      "type": "SCALAR"
    }
  ],
  "asset": {
    "extras": {
      "author": "Mikhail Volkov (https://sketchfab.com/mgv)",
      "license": "CC-BY-4.0 (http://creativecommons.org/licenses/by/4.0/)",
      "source": "https://sketchfab.com/3d-models/vyborg-castle-5701b42b9a6b4955b6260323bcd711a0",
      "title": "Vyborg Castle / Выборгский замок"
    },
    "generator": "Sketchfab-11.94.0",
    "version": "2.0"
  },
  "bufferViews": [
    {
      "buffer": 0,
      "byteLength": 2496684,
      "name": "floatBufferViews",
      "target": 34963
    },
    {
      "buffer": 0,
      "byteLength": 1418056,
      "byteOffset": 2496684,
      "byteStride": 8,
      "name": "floatBufferViews",
      "target": 34962
    },
    {
      "buffer": 0,
      "byteLength": 4254168,
      "byteOffset": 3914740,
      "byteStride": 12,
      "name": "floatBufferViews",
      "target": 34962
    }
  ],
  "buffers": [
    {
      "byteLength": 8168908,
      "uri": "scene.bin"
    }
  ],
  "extensionsUsed": [
    "KHR_materials_unlit"
  ],
  "images": [
    {
      "uri": "textures/Vyborg-castle.1001_baseColor.jpeg"
    },
    {
      "uri": "textures/Vyborg-castle.1002_baseColor.jpeg"
    },
    {
      "uri": "textures/Vyborg-castle.1003_baseColor.jpeg"
    },
    {
      "uri": "textures/Vyborg-castle.1004_baseColor.jpeg"
    }
  ],
  "materials": [
    {
      "doubleSided": true,
      "extensions": {
        "KHR_materials_unlit": {}
      },
      "name": "Vyborg-castle.1001",
      "pbrMetallicRoughness": {
        "baseColorTexture": {
          "index": 0
        },
        "metallicFactor": 0.0
      }
    },
    {
      "doubleSided": true,
      "extensions": {
        "KHR_materials_unlit": {}
      },
      "name": "Vyborg-castle.1002",
      "pbrMetallicRoughness": {
        "baseColorTexture": {
          "index": 1
        },
        "metallicFactor": 0.0
      }
    },
    {
      "doubleSided": true,
      "extensions": {
        "KHR_materials_unlit": {}
      },
      "name": "Vyborg-castle.1003",
      "pbrMetallicRoughness": {
        "baseColorTexture": {
          "index": 2
        },
        "metallicFactor": 0.0
      }
    },
    {
      "doubleSided": true,
      "extensions": {
        "KHR_materials_unlit": {}
      },
      "name": "Vyborg-castle.1004",
      "pbrMetallicRoughness": {
        "baseColorTexture": {
          "index": 3
        },
        "metallicFactor": 0.0
      }
    }
  ],
  "meshes": [
    {
      "name": "Object_0",
      "primitives": [
        {
          "attributes": {
            "NORMAL": 1,
            "POSITION": 0,
            "TEXCOORD_0": 2
          },
          "indices": 3,
          "material": 0,
          "mode": 4
        }
      ]
    },
    {
      "name": "Object_1",
      "primitives": [
        {
          "attributes": {
            "NORMAL": 5,
            "POSITION": 4,
            "TEXCOORD_0": 6
          },
          "indices": 7,
          "material": 1,
          "mode": 4
        }
      ]
    },
    {
      "name": "Object_2",
      "primitives": [
        {
          "attributes": {
            "NORMAL": 9,
            "POSITION": 8,
            "TEXCOORD_0": 10
          },
          "indices": 11,
          "material": 2,
          "mode": 4
        }
      ]
    },
    {
      "name": "Object_3",
      "primitives": [
        {
          "attributes": {
            "NORMAL": 13,
            "POSITION": 12,
            "TEXCOORD_0": 14
          },
          "indices": 15,
          "material": 3,
          "mode": 4
        }
      ]
    }
  ],
  "nodes": [
    {
      "children": [
        1
      ],
      "matrix": [
        1.0,
        0.0,
        0.0,
        0.0,
        0.0,
        -0.9999855160713196,
        0.005386103410273568,
        0.0,
        0.0,
        -0.005386103410273568,
        -0.9999855160713196,
        0.0,
        0.0,
        -133.7714691162109,
        -107.58905792236331,
        1.0
      ],
      "name": "Sketchfab_model"
    },
    {
      "children": [
        2,
        3,
        4,
        5
      ],
      "name": "Vyborg-castle.obj.cleaner.materialmerger.gles"
    },
    {
      "mesh": 0,
      "name": "Object_2"
    },
    {
      "mesh": 1,
      "name": "Object_3"
    },
    {
      "mesh": 2,
      "name": "Object_4"
    },
    {
      "mesh": 3,
      "name": "Object_5"
    }
  ],
  "samplers": [
    {
      "magFilter": 9729,
      "minFilter": 9987,
      "wrapS": 10497,
      "wrapT": 10497
    }
  ],
  "scene": 0,
  "scenes": [
    {
      "name": "Sketchfab_Scene",
      "nodes": [
        0
      ]
    }
  ],
  "textures": [
    {
      "sampler": 0,
      "source": 0
    },
    {
      "sampler": 0,
      "source": 1
    },
    {
      "sampler": 0,
      "source": 2
    },
    {
      "sampler": 0,
      "source": 3
    }
  ]
}
