{
    "asset" : {
        "generator" : "Khronos glTF Blender I/O v1.6.16",
        "version" : "2.0"
    },
    "scene" : 0,
    "scenes" : [
        {
            "name" : "Scene",
            "nodes" : [
                0,
                1,
                2,
                3,
                4,
                5,
                6,
                7
            ]
        }
    ],
    "nodes" : [
        {
            "mesh" : 0,
            "name" : "Plane",
            "scale" : [
                140.10000610351562,
                1,
                320
            ],
            "translation" : [
                -36.85704040527344,
                0,
                -160
            ]
        },
        {
            "mesh" : 1,
            "name" : "Bibliothek",
            "rotation" : [
                0,
                -0.02570507302880287,
                0,
                0.9996695518493652
            ],
            "scale" : [
                7,
                5,
                20
            ],
            "translation" : [
                -13,
                5,
                -130
            ]
        },
        {
            "mesh" : 2,
            "name" : "Hauptgebaeude",
            "scale" : [
                33,
                3,
                12
            ],
            "translation" : [
                -36,
                43.26755142211914,
                -40
            ]
        },
        {
            "mesh" : 3,
            "name" : "laborgebaeude",
            "scale" : [
                10.009037017822266,
                10,
                41
            ],
            "translation" : [
                -80,
                10,
                -85
            ]
        },
        {
            "mesh" : 4,
            "name" : "mensa_aula",
            "scale" : [
                12.5,
                5,
                21
            ],
            "translation" : [
                -85,
                5,
                -170
            ]
        },
        {
            "mesh" : 5,
            "name" : "durchgang",
            "rotation" : [
                0,
                -0.012664616107940674,
                0,
                0.9999198913574219
            ],
            "scale" : [
                4,
                12.5,
                3
            ],
            "translation" : [
                -1.1013432741165161,
                12.5,
                -247.9355926513672
            ]
        },
        {
            "mesh" : 6,
            "name" : "wohnheim_1",
            "rotation" : [
                0,
                -0.012664616107940674,
                0,
                0.9999198913574219
            ],
            "scale" : [
                7.5,
                12.5,
                30
            ],
            "translation" : [
                -13.039533615112305,
                12.5,
                -221.26382446289062
            ]
        },
        {
            "mesh" : 5,
            "name" : "wohnheim_2",
            "rotation" : [
                0,
                -0.012664616107940674,
                0,
                0.9999198913574219
            ],
            "scale" : [
                7.5,
                12.5,
                30
            ],
            "translation" : [
                11.156975746154785,
                12.5,
                -274.6490783691406
            ]
        }
    ],
    "materials" : [
        {
            "doubleSided" : true,
            "name" : "Material",
            "pbrMetallicRoughness" : {
                "baseColorFactor" : [
                    0.800000011920929,
                    0.800000011920929,
                    0.800000011920929,
                    1
                ],
                "metallicFactor" : 0,
                "roughnessFactor" : 0.4000000059604645
            }
        }
    ],
    "meshes" : [
        {
            "name" : "Plane.001",
            "primitives" : [
                {
                    "attributes" : {
                        "POSITION" : 0,
                        "NORMAL" : 1,
                        "TEXCOORD_0" : 2
                    },
                    "indices" : 3
                }
            ]
        },
        {
            "name" : "Cube.017",
            "primitives" : [
                {
                    "attributes" : {
                        "POSITION" : 4,
                        "NORMAL" : 5,
                        "TEXCOORD_0" : 6
                    },
                    "indices" : 7
                }
            ]
        },
        {
            "name" : "Cube.001",
            "primitives" : [
                {
                    "attributes" : {
                        "POSITION" : 8,
                        "NORMAL" : 9,
                        "TEXCOORD_0" : 10
                    },
                    "indices" : 11,
                    "material" : 0
                }
            ]
        },
        {
            "name" : "Cube",
            "primitives" : [
                {
                    "attributes" : {
                        "POSITION" : 12,
                        "NORMAL" : 13,
                        "TEXCOORD_0" : 14
                    },
                    "indices" : 15,
                    "material" : 0
                }
            ]
        },
        {
            "name" : "Cube",
            "primitives" : [
                {
                    "attributes" : {
                        "POSITION" : 16,
                        "NORMAL" : 17,
                        "TEXCOORD_0" : 18
                    },
                    "indices" : 19,
                    "material" : 0
                }
            ]
        },
        {
            "name" : "Cube.001",
            "primitives" : [
                {
                    "attributes" : {
                        "POSITION" : 20,
                        "NORMAL" : 21,
                        "TEXCOORD_0" : 22
                    },
                    "indices" : 19,
                    "material" : 0
                }
            ]
        },
        {
            "name" : "Cube",
            "primitives" : [
                {
                    "attributes" : {
                        "POSITION" : 23,
                        "NORMAL" : 24,
                        "TEXCOORD_0" : 25
                    },
                    "indices" : 19,
                    "material" : 0
                }
            ]
        }
    ],
    "accessors" : [
        {
            "bufferView" : 0,
            "componentType" : 5126,
            "count" : 16641,
            "max" : [
                0.5,
                0,
                0.5
            ],
            "min" : [
                -0.5,
                0,
                -0.5
            ],
            "type" : "VEC3"
        },
        {
            "bufferView" : 1,
            "componentType" : 5126,
            "count" : 16641,
            "type" : "VEC3"
        },
        {
            "bufferView" : 2,
            "componentType" : 5126,
            "count" : 16641,
            "type" : "VEC2"
        },
        {
            "bufferView" : 3,
            "componentType" : 5123,
            "count" : 98304,
            "type" : "SCALAR"
        },
        {
            "bufferView" : 4,
            "componentType" : 5126,
            "count" : 24,
            "max" : [
                1,
                1,
                1
            ],
            "min" : [
                -1,
                -1,
                -1
            ],
            "type" : "VEC3"
        },
        {
            "bufferView" : 5,
            "componentType" : 5126,
            "count" : 24,
            "type" : "VEC3"
        },
        {
            "bufferView" : 6,
            "componentType" : 5126,
            "count" : 24,
            "type" : "VEC2"
        },
        {
            "bufferView" : 7,
            "componentType" : 5123,
            "count" : 36,
            "type" : "SCALAR"
        },
        {
            "bufferView" : 8,
            "componentType" : 5126,
            "count" : 9336,
            "max" : [
                0.549445390701294,
                -6.822519779205322,
                0.4315166175365448
            ],
            "min" : [
                -0.5075241327285767,
                -14.422521591186523,
                -7.956776142120361
            ],
            "type" : "VEC3"
        },
        {
            "bufferView" : 9,
            "componentType" : 5126,
            "count" : 9336,
            "type" : "VEC3"
        },
        {
            "bufferView" : 10,
            "componentType" : 5126,
            "count" : 9336,
            "type" : "VEC2"
        },
        {
            "bufferView" : 11,
            "componentType" : 5123,
            "count" : 14103,
            "type" : "SCALAR"
        },
        {
            "bufferView" : 12,
            "componentType" : 5126,
            "count" : 44,
            "max" : [
                0.9504503607749939,
                1,
                0.7359288930892944
            ],
            "min" : [
                -1.0495496988296509,
                -1,
                -1.2640711069107056
            ],
            "type" : "VEC3"
        },
        {
            "bufferView" : 13,
            "componentType" : 5126,
            "count" : 44,
            "type" : "VEC3"
        },
        {
            "bufferView" : 14,
            "componentType" : 5126,
            "count" : 44,
            "type" : "VEC2"
        },
        {
            "bufferView" : 15,
            "componentType" : 5123,
            "count" : 72,
            "type" : "SCALAR"
        },
        {
            "bufferView" : 16,
            "componentType" : 5126,
            "count" : 24,
            "max" : [
                1,
                1,
                1
            ],
            "min" : [
                -1,
                -1,
                -1
            ],
            "type" : "VEC3"
        },
        {
            "bufferView" : 17,
            "componentType" : 5126,
            "count" : 24,
            "type" : "VEC3"
        },
        {
            "bufferView" : 18,
            "componentType" : 5126,
            "count" : 24,
            "type" : "VEC2"
        },
        {
            "bufferView" : 19,
            "componentType" : 5123,
            "count" : 36,
            "type" : "SCALAR"
        },
        {
            "bufferView" : 20,
            "componentType" : 5126,
            "count" : 24,
            "max" : [
                1,
                1,
                1
            ],
            "min" : [
                -1,
                -1,
                -1
            ],
            "type" : "VEC3"
        },
        {
            "bufferView" : 21,
            "componentType" : 5126,
            "count" : 24,
            "type" : "VEC3"
        },
        {
            "bufferView" : 22,
            "componentType" : 5126,
            "count" : 24,
            "type" : "VEC2"
        },
        {
            "bufferView" : 23,
            "componentType" : 5126,
            "count" : 24,
            "max" : [
                1,
                1,
                1
            ],
            "min" : [
                -1,
                -1,
                -1
            ],
            "type" : "VEC3"
        },
        {
            "bufferView" : 24,
            "componentType" : 5126,
            "count" : 24,
            "type" : "VEC3"
        },
        {
            "bufferView" : 25,
            "componentType" : 5126,
            "count" : 24,
            "type" : "VEC2"
        }
    ],
    "bufferViews" : [
        {
            "buffer" : 0,
            "byteLength" : 199692,
            "byteOffset" : 0
        },
        {
            "buffer" : 0,
            "byteLength" : 199692,
            "byteOffset" : 199692
        },
        {
            "buffer" : 0,
            "byteLength" : 133128,
            "byteOffset" : 399384
        },
        {
            "buffer" : 0,
            "byteLength" : 196608,
            "byteOffset" : 532512
        },
        {
            "buffer" : 0,
            "byteLength" : 288,
            "byteOffset" : 729120
        },
        {
            "buffer" : 0,
            "byteLength" : 288,
            "byteOffset" : 729408
        },
        {
            "buffer" : 0,
            "byteLength" : 192,
            "byteOffset" : 729696
        },
        {
            "buffer" : 0,
            "byteLength" : 72,
            "byteOffset" : 729888
        },
        {
            "buffer" : 0,
            "byteLength" : 112032,
            "byteOffset" : 729960
        },
        {
            "buffer" : 0,
            "byteLength" : 112032,
            "byteOffset" : 841992
        },
        {
            "buffer" : 0,
            "byteLength" : 74688,
            "byteOffset" : 954024
        },
        {
            "buffer" : 0,
            "byteLength" : 28206,
            "byteOffset" : 1028712
        },
        {
            "buffer" : 0,
            "byteLength" : 528,
            "byteOffset" : 1056920
        },
        {
            "buffer" : 0,
            "byteLength" : 528,
            "byteOffset" : 1057448
        },
        {
            "buffer" : 0,
            "byteLength" : 352,
            "byteOffset" : 1057976
        },
        {
            "buffer" : 0,
            "byteLength" : 144,
            "byteOffset" : 1058328
        },
        {
            "buffer" : 0,
            "byteLength" : 288,
            "byteOffset" : 1058472
        },
        {
            "buffer" : 0,
            "byteLength" : 288,
            "byteOffset" : 1058760
        },
        {
            "buffer" : 0,
            "byteLength" : 192,
            "byteOffset" : 1059048
        },
        {
            "buffer" : 0,
            "byteLength" : 72,
            "byteOffset" : 1059240
        },
        {
            "buffer" : 0,
            "byteLength" : 288,
            "byteOffset" : 1059312
        },
        {
            "buffer" : 0,
            "byteLength" : 288,
            "byteOffset" : 1059600
        },
        {
            "buffer" : 0,
            "byteLength" : 192,
            "byteOffset" : 1059888
        },
        {
            "buffer" : 0,
            "byteLength" : 288,
            "byteOffset" : 1060080
        },
        {
            "buffer" : 0,
            "byteLength" : 288,
            "byteOffset" : 1060368
        },
        {
            "buffer" : 0,
            "byteLength" : 192,
            "byteOffset" : 1060656
        }
    ],
    "buffers" : [
        {
            "byteLength" : 1060848,
            "uri" : "data:application/octet-stream;base64,"
        }
    ]
}
